# xmcd
#
# Track frame offsets:
#	150
#	31506
#	57391
#	85731
#	113461
#	137240
#	169304
#	206606
#	233004
#	261610
#	291733
#	320352
#
# Disc length: 4392
#
# Revision: 4
# Processed by: cddbd v1.5.1PL0 Copyright (c) Steve Scherf et al.
# Submitted via: Grip 2.94
# Normalized: r3:DSETVAR1,TDELIM( - )
#
DISCID=ad11260c
DTITLE=Various Artist - Club 2000 XL - The real Club Feeling #2 - CD 2
DYEAR=1900
DGENRE=
TTITLE0=Avant Garde - Get Down (X-tended Mix)
TTITLE1=Paul Johnson - Get Get Down (Original Extended Mix)
TTITLE2=DJ Phoen feat. Sanna - Keep On Jumpin' (Lissat and Brian Mix)
TTITLE3=Tom Novy feat. Virginia - I Rock (Extended Mix)
TTITLE4=Nunca - House Of The Doom (Atmoz Remix)
TTITLE5=Junkfood Junkles - Funky Horn (Original Extended)
TTITLE6=Zenith and DJ Tom Sun - The Door (Cristan Tauber Mix)
TTITLE7=Fahrenheit 66 - Don't Stop 99 (Extreme Force Mix)
TTITLE8=Kosmonova Pres. Mike Brings - Acid Folk 2000 (Club Mix)
TTITLE9=C.T. and Friends - The Present
TTITLE10=Pulsdriver - I Dominate U (Extended Version)
TTITLE11=Summer Madness - Planet Rio (12'' Re-Edit)
EXTD=
EXTT0=
EXTT1=
EXTT2=
EXTT3=
EXTT4=
EXTT5=
EXTT6=
EXTT7=
EXTT8=
EXTT9=
EXTT10=
EXTT11=
PLAYORDER=
